<?xml version="1.0" encoding="UTF-8"?>
<svg width="276.16" height="100.07" version="1.1" viewBox="0 0 73.066 26.478" xml:space="preserve" xmlns="http://www.w3.org/2000/svg"><defs><radialGradient id="a" cx="-36.401" cy="133.32" r="7.7876" gradientTransform="matrix(1.0595 0 0 .13929 2.5508 115.08)" gradientUnits="userSpaceOnUse"><stop stop-color="#959595" offset="0"/><stop stop-color="#7f7f7f" stop-opacity="0" offset="1"/></radialGradient></defs><g transform="matrix(.6933 0 0 .6933 34.127 -66.941)"><g fill="#ed2f00"><path d="m-48.68 103.9c-0.44311 0.17423-0.65953 0.67115-0.48529 1.1143l10.482 26.658c0.17424 0.44312 0.67114 0.65955 1.1143 0.4853l19.115-7.5161c0.44311-0.17423 0.65953-0.67114 0.48529-1.1143l-10.482-26.658c-0.04889-0.12432-0.12366-0.23024-0.21503-0.31525l-0.14252 21.687-2.9612-0.0195 0.13795-21.025zm3.2588 1.3667 9.6338-3.7881c0.45523-0.179 0.96559 0.0438 1.1446 0.4989 0.179 0.45524-0.0432 0.96541-0.49842 1.1444l-9.6338 3.7881c-0.45522 0.17899-0.96588-0.043-1.1449-0.49823-0.179-0.45523 0.0435-0.96607 0.49872-1.1451zm1.3922 3.5361 9.6338-3.7881c0.45523-0.17901 0.96607 0.0436 1.1451 0.49872 0.179 0.45522-0.04368 0.96557-0.49891 1.1446l-9.6338 3.7881c-0.45522 0.17901-0.9654-0.0433-1.1444-0.49843-0.179-0.45523 0.04301-0.96587 0.49824-1.1449zm1.3907 3.5367 6.9132-2.7184c0.45522-0.179 0.96607 0.0436 1.1451 0.49872 0.179 0.45522-0.04368 0.96559-0.49891 1.1446l-6.9132 2.7184c-0.45522 0.17899-0.9654-0.0433-1.1444-0.49843-0.179-0.45523 0.04301-0.96589 0.49824-1.1449zm10.869 6.4832 2.9612 0.0151-1.4806 3.6137z"/><text x="-15.620037" y="127.25142" font-size="17.374px" stroke-width="1.4568" xml:space="preserve"><tspan x="-15.620037" y="127.25142" fill="#ed2f00" font-family="Arial" font-size="17.374px" stroke-width="1.4568">Em</tspan></text><text x="-14.160119" y="113.65612" font-size="6.7501px" stroke-width=".56598" xml:space="preserve"><tspan x="-14.160119" y="113.65612" fill="#ed2f00" font-family="Arial" font-size="6.7501px" stroke-width=".56598">Emurasoft</tspan></text></g><text x="10.540914" y="127.2146" fill="#7e7e7e" font-size="17.374px" stroke-width="1.4568" xml:space="preserve"><tspan x="10.540914" y="127.2146" fill="#7e7e7e" font-family="Arial" font-size="17.374px" stroke-width="1.4568">Editor</tspan></text><ellipse cx="-36.015" cy="133.66" rx="8.2506" ry="1.0847" fill="url(#a)"/></g></svg>
