<?xml version="1.0" encoding="UTF-8"?>
<svg clip-rule="evenodd" fill-rule="evenodd" stroke-linejoin="round" stroke-miterlimit="2" version="1.1" viewBox="0 0 79 80" xml:space="preserve" xmlns="http://www.w3.org/2000/svg"><rect width="78.623" height="79.049" fill="none"/><path d="m39.315 23.791c8.684-0 15.734 7.05 15.734 15.733 0 8.684-7.05 15.734-15.734 15.734-8.683 0-15.733-7.05-15.733-15.734-0-8.683 7.05-15.733 15.733-15.733zm0 4.737c6.069 0 10.997 4.927 10.997 10.996s-4.928 10.996-10.997 10.996c-6.068 0-10.996-4.927-10.996-10.996s4.928-10.996 10.996-10.996z" fill="#333"/><path d="m44.216 14.515c0-2.705-2.196-4.901-4.901-4.901-2.704 0-4.9 2.196-4.9 4.901s2.196 4.901 4.9 4.901c2.705 0 4.901-2.196 4.901-4.901z" fill="#333"/><path d="m60.666 24.892c1.902-1.902 1.902-4.99 0-6.892l-0.04-0.039c-1.901-1.902-4.989-1.902-6.891-0-1.901 1.901-1.901 4.989 0 6.891l0.04 0.04c1.902 1.901 4.99 1.901 6.891-0z" fill="#333"/><path d="m25.737 61.103c1.909-1.91 1.909-5.011-0-6.921l-0.01-0.01c-1.91-1.91-5.011-1.91-6.921-0s-1.91 5.011-0 6.921l0.01 0.01c1.91 1.91 5.011 1.91 6.921-0z" fill="#333"/><path d="m60.676 54.167c-1.907-1.907-5.004-1.907-6.911 0l-0.02 0.02c-1.907 1.907-1.907 5.004 0 6.911s5.004 1.907 6.911-0l0.02-0.02c1.907-1.907 1.907-5.004 0-6.911z" fill="#333"/><path d="m14.524 34.623c-2.702 0-4.896 2.194-4.896 4.896v0.01c0 2.702 2.194 4.896 4.896 4.896s4.896-2.194 4.896-4.896v-0.01c0-2.702-2.194-4.896-4.896-4.896z" fill="#333"/><path d="m44.216 64.534c0-2.705-2.196-4.901-4.901-4.901-2.704-0-4.9 2.196-4.9 4.901-0 2.704 2.196 4.9 4.9 4.9 2.705 0 4.901-2.196 4.901-4.9z" fill="#333"/><path d="m25.734 17.943c-1.911-1.911-5.015-1.911-6.926 0l-5e-3 5e-3c-1.911 1.911-1.911 5.015 0 6.926s5.015 1.911 6.926 0l5e-3 -5e-3c1.911-1.911 1.911-5.014 0-6.926z" fill="#333"/><path d="m64.103 34.623c-2.7 0-4.892 2.192-4.892 4.892v0.019c-0 2.699 2.192 4.891 4.892 4.891 2.699 0 4.891-2.192 4.891-4.891v-0.019c0-2.7-2.192-4.892-4.891-4.892z" fill="#333"/></svg>
